<?xml version="1.0" encoding="UTF-8" standalone="no"?>
<!-- Created with Inkscape (http://www.inkscape.org/) -->

<svg
   xmlns:dc="http://purl.org/dc/elements/1.1/"
   xmlns:cc="http://creativecommons.org/ns#"
   xmlns:rdf="http://www.w3.org/1999/02/22-rdf-syntax-ns#"
   xmlns:svg="http://www.w3.org/2000/svg"
   xmlns="http://www.w3.org/2000/svg"
   xmlns:sodipodi="http://sodipodi.sourceforge.net/DTD/sodipodi-0.dtd"
   xmlns:inkscape="http://www.inkscape.org/namespaces/inkscape"
   width="15mm"
   height="15mm"
   viewBox="0 0 15 15"
   version="1.1"
   id="svg8"
   inkscape:version="0.92.4 (5da689c313, 2019-01-14)"
   sodipodi:docname="arrowdown.svg">
  <defs
     id="defs2" />
  <sodipodi:namedview
     id="base"
     pagecolor="#444444"
     bordercolor="#666666"
     borderopacity="1.0"
     inkscape:pageopacity="0"
     inkscape:pageshadow="2"
     inkscape:zoom="5.6"
     inkscape:cx="36.40632"
     inkscape:cy="30.984302"
     inkscape:document-units="mm"
     inkscape:current-layer="layer1"
     showgrid="false"
     inkscape:window-width="1920"
     inkscape:window-height="996"
     inkscape:window-x="-8"
     inkscape:window-y="-8"
     inkscape:window-maximized="1" />
  <metadata
     id="metadata5">
    <rdf:RDF>
      <cc:Work
         rdf:about="">
        <dc:format>image/svg+xml</dc:format>
        <dc:type
           rdf:resource="http://purl.org/dc/dcmitype/StillImage" />
        <dc:title />
      </cc:Work>
    </rdf:RDF>
  </metadata>
  <g
     inkscape:label="Layer 1"
     inkscape:groupmode="layer"
     id="layer1"
     transform="translate(0,-282)">
    <path
       inkscape:connector-curvature="0"
       id="path827"
       style="font-style:normal;font-weight:normal;font-size:10.58333302px;line-height:1.25;font-family:sans-serif;letter-spacing:0px;word-spacing:0px;fill:#ffffff;fill-opacity:1;stroke:none;stroke-width:0.29075277"
       d="m 12.36792,289.21016 q 0,-0.34375 -0.23121,-0.60663 L 11.66804,288.098 q -0.23746,-0.25615 -0.568653,-0.25615 -0.337443,0 -0.562404,0.25615 l -1.8371869,1.97493 v -4.74524 q 0,-0.3505 -0.2374602,-0.56619 -0.23121,-0.22244 -0.5624041,-0.22244 H 7.1000686 q -0.331193,0 -0.5686531,0.22244 -0.2312101,0.21569 -0.2312101,0.56619 v 4.74524 L 4.4630188,288.098 q -0.2249621,-0.25615 -0.5624041,-0.25615 -0.3374431,0 -0.5624041,0.25615 l -0.4686702,0.50553 q -0.2374602,0.25613 -0.2374602,0.60663 0,0.35724 0.2374602,0.61338 l 4.0680558,4.38801 q 0.2187129,0.24939 0.562404,0.24939 0.3374431,0 0.5686532,-0.24939 l 4.0680566,-4.38801 q 0.23121,-0.26288 0.23121,-0.61338 z" />
  </g>
</svg>
