<?xml version="1.0" encoding="UTF-8" standalone="no"?>
<!-- Created with Inkscape (http://www.inkscape.org/) -->

<svg
   xmlns:dc="http://purl.org/dc/elements/1.1/"
   xmlns:cc="http://creativecommons.org/ns#"
   xmlns:rdf="http://www.w3.org/1999/02/22-rdf-syntax-ns#"
   xmlns:svg="http://www.w3.org/2000/svg"
   xmlns="http://www.w3.org/2000/svg"
   xmlns:sodipodi="http://sodipodi.sourceforge.net/DTD/sodipodi-0.dtd"
   xmlns:inkscape="http://www.inkscape.org/namespaces/inkscape"
   width="15mm"
   height="15mm"
   viewBox="0 0 15 15"
   version="1.1"
   id="svg8"
   inkscape:version="0.92.4 (5da689c313, 2019-01-14)"
   sodipodi:docname="downarrow.svg">
  <defs
     id="defs2" />
  <sodipodi:namedview
     id="base"
     pagecolor="#444444"
     bordercolor="#666666"
     borderopacity="1.0"
     inkscape:pageopacity="0"
     inkscape:pageshadow="2"
     inkscape:zoom="5.6"
     inkscape:cx="67.03132"
     inkscape:cy="30.984302"
     inkscape:document-units="mm"
     inkscape:current-layer="layer1"
     showgrid="false"
     inkscape:window-width="1920"
     inkscape:window-height="996"
     inkscape:window-x="-8"
     inkscape:window-y="-8"
     inkscape:window-maximized="1" />
  <metadata
     id="metadata5">
    <rdf:RDF>
      <cc:Work
         rdf:about="">
        <dc:format>image/svg+xml</dc:format>
        <dc:type
           rdf:resource="http://purl.org/dc/dcmitype/StillImage" />
        <dc:title />
      </cc:Work>
    </rdf:RDF>
  </metadata>
  <g
     inkscape:label="Layer 1"
     inkscape:groupmode="layer"
     id="layer1"
     transform="translate(0,-282)">
    <path
       inkscape:connector-curvature="0"
       id="path827"
       style="font-style:normal;font-weight:normal;font-size:10.58333302px;line-height:1.25;font-family:sans-serif;letter-spacing:0px;word-spacing:0px;fill:#ffffff;fill-opacity:1;stroke:none;stroke-width:0.38767037"
       d="m 13.994491,289.00495 q 0,-0.45834 -0.30828,-0.80885 l -0.624893,-0.67403 q -0.316614,-0.34153 -0.758205,-0.34153 -0.449924,0 -0.749871,0.34153 l -2.4495827,2.63324 v -6.32699 q 0,-0.46733 -0.3166136,-0.75492 -0.30828,-0.29659 -0.7498721,-0.29659 H 6.9706893 q -0.4415906,0 -0.7582041,0.29659 -0.3082801,0.28759 -0.3082801,0.75492 v 6.32699 l -2.4495822,-2.63324 q -0.2999494,-0.34153 -0.7498721,-0.34153 -0.4499241,0 -0.7498721,0.34153 L 1.329985,288.1961 q -0.3166136,0.34151 -0.3166136,0.80885 0,0.47632 0.3166136,0.81783 l 5.4240744,5.85068 q 0.2916173,0.33253 0.7498721,0.33253 0.4499241,0 0.7582042,-0.33253 l 5.4240753,-5.85068 q 0.30828,-0.3505 0.30828,-0.81783 z" />
  </g>
</svg>
