<?xml version="1.0" encoding="UTF-8" standalone="no"?>
<!-- Created with Inkscape (http://www.inkscape.org/) -->

<svg
   xmlns:dc="http://purl.org/dc/elements/1.1/"
   xmlns:cc="http://creativecommons.org/ns#"
   xmlns:rdf="http://www.w3.org/1999/02/22-rdf-syntax-ns#"
   xmlns:svg="http://www.w3.org/2000/svg"
   xmlns="http://www.w3.org/2000/svg"
   xmlns:sodipodi="http://sodipodi.sourceforge.net/DTD/sodipodi-0.dtd"
   xmlns:inkscape="http://www.inkscape.org/namespaces/inkscape"
   width="81mm"
   height="91mm"
   viewBox="0 0 81 91"
   version="1.1"
   id="svg8"
   inkscape:version="0.92.4 (5da689c313, 2019-01-14)"
   sodipodi:docname="automode.svg">
  <defs
     id="defs2" />
  <sodipodi:namedview
     id="base"
     pagecolor="#515151"
     bordercolor="#666666"
     borderopacity="1.0"
     inkscape:pageopacity="0"
     inkscape:pageshadow="2"
     inkscape:zoom="1.4"
     inkscape:cx="284.70728"
     inkscape:cy="87.393731"
     inkscape:document-units="mm"
     inkscape:current-layer="layer2"
     showgrid="false"
     inkscape:window-width="1920"
     inkscape:window-height="996"
     inkscape:window-x="-8"
     inkscape:window-y="-8"
     inkscape:window-maximized="1" />
  <metadata
     id="metadata5">
    <rdf:RDF>
      <cc:Work
         rdf:about="">
        <dc:format>image/svg+xml</dc:format>
        <dc:type
           rdf:resource="http://purl.org/dc/dcmitype/StillImage" />
        <dc:title />
      </cc:Work>
    </rdf:RDF>
  </metadata>
  <g
     inkscape:groupmode="layer"
     id="layer2"
     inkscape:label="Layer 2"
     style="display:inline"
     transform="translate(0,-206)">
    <path
       style="fill:#ffffff;fill-opacity:0.9517544;stroke:none;stroke-width:0.29364741;stroke-linecap:round;stroke-linejoin:round;stroke-miterlimit:4;stroke-dasharray:none;stroke-opacity:1"
       d="M 40.499852,212.48059 A 39.019383,39.019383 0 0 0 1.4803821,251.50006 39.019383,39.019383 0 0 0 40.499852,290.51953 39.019383,39.019383 0 0 0 79.519325,251.50006 39.019383,39.019383 0 0 0 40.499852,212.48059 Z m 0,5.06099 A 33.958634,33.958634 0 0 1 74.458337,251.50006 33.958634,33.958634 0 0 1 40.499852,285.45855 33.958634,33.958634 0 0 1 6.5413692,251.50006 33.958634,33.958634 0 0 1 40.499852,217.54158 Z"
       id="path6289"
       inkscape:connector-curvature="0" />
    <g
       aria-label="AUTO"
       style="font-style:normal;font-variant:normal;font-weight:normal;font-stretch:condensed;font-size:37.74494553px;line-height:1.25;font-family:Bahnschrift;-inkscape-font-specification:'Bahnschrift Condensed';letter-spacing:0px;word-spacing:0px;fill:#ffffff;fill-opacity:1;stroke:none;stroke-width:0.9436236"
       id="text6309">
      <path
         d="m 17.462313,238.10124 h 3.206846 l 6.192531,26.79744 h -3.759751 l -4.036203,-21.30525 -4.036202,21.30525 h -3.759751 z m -2.230048,17.65609 h 7.943395 v 3.29899 h -7.943395 z"
         style="font-style:normal;font-variant:normal;font-weight:normal;font-stretch:condensed;font-family:Bahnschrift;-inkscape-font-specification:'Bahnschrift Condensed';fill:#ffffff;fill-opacity:1;stroke-width:0.9436236"
         id="path819" />
      <path
         d="m 33.717705,265.17513 q -1.953596,0 -3.317427,-0.71877 -1.363831,-0.73721 -2.064177,-2.1379 -0.700345,-1.41912 -0.700345,-3.44644 v -20.77078 h 3.501728 v 20.91822 q 0,1.32697 0.663485,2.04575 0.663486,0.70035 1.916736,0.70035 1.27168,0 1.935166,-0.70035 0.681915,-0.71878 0.681915,-2.04575 v -20.91822 h 3.501728 v 20.77078 q 0,2.02732 -0.718775,3.44644 -0.700346,1.40069 -2.064177,2.1379 -1.363831,0.71877 -3.335857,0.71877 z"
         style="font-style:normal;font-variant:normal;font-weight:normal;font-stretch:condensed;font-family:Bahnschrift;-inkscape-font-specification:'Bahnschrift Condensed';fill:#ffffff;fill-opacity:1;stroke-width:0.9436236"
         id="path821" />
      <path
         d="m 46.287066,240.29443 h 3.501728 v 24.60425 h -3.501728 z m -4.754979,-2.19319 h 13.011686 v 3.31743 H 41.532087 Z"
         style="font-style:normal;font-variant:normal;font-weight:normal;font-stretch:condensed;font-family:Bahnschrift;-inkscape-font-specification:'Bahnschrift Condensed';fill:#ffffff;fill-opacity:1;stroke-width:0.9436236"
         id="path823" />
      <path
         d="m 63.076932,265.17513 q -2.101037,0 -3.593879,-0.79249 -1.492842,-0.7925 -2.285339,-2.30377 -0.774066,-1.51127 -0.774066,-3.63074 V 244.5518 q 0,-2.1379 0.774066,-3.64917 0.792497,-1.51127 2.285339,-2.28534 1.492842,-0.7925 3.593879,-0.7925 2.101037,0 3.593879,0.7925 1.492842,0.77407 2.266908,2.28534 0.792497,1.51127 0.792497,3.64917 v 13.89633 q 0,2.11947 -0.792497,3.63074 -0.774066,1.51127 -2.266908,2.30377 -1.492842,0.79249 -3.593879,0.79249 z m 0,-3.40957 q 0.995228,0 1.695574,-0.36861 0.718775,-0.38703 1.087378,-1.10581 0.368603,-0.71877 0.368603,-1.73243 v -14.11749 q 0,-1.01366 -0.368603,-1.73244 -0.368603,-0.71877 -1.087378,-1.08738 -0.700346,-0.38703 -1.695574,-0.38703 -0.995228,0 -1.714004,0.38703 -0.700346,0.36861 -1.068949,1.08738 -0.368603,0.71878 -0.368603,1.73244 v 14.11749 q 0,1.01366 0.368603,1.73243 0.368603,0.71878 1.068949,1.10581 0.718776,0.36861 1.714004,0.36861 z"
         style="font-style:normal;font-variant:normal;font-weight:normal;font-stretch:condensed;font-family:Bahnschrift;-inkscape-font-specification:'Bahnschrift Condensed';fill:#ffffff;fill-opacity:1;stroke-width:0.9436236"
         id="path825" />
    </g>
  </g>
  <g
     inkscape:groupmode="layer"
     id="layer4"
     inkscape:label="Layer 3" />
</svg>
