<?xml version="1.0" encoding="UTF-8" standalone="no"?>
<!-- Created with Inkscape (http://www.inkscape.org/) -->

<svg
   xmlns:dc="http://purl.org/dc/elements/1.1/"
   xmlns:cc="http://creativecommons.org/ns#"
   xmlns:rdf="http://www.w3.org/1999/02/22-rdf-syntax-ns#"
   xmlns:svg="http://www.w3.org/2000/svg"
   xmlns="http://www.w3.org/2000/svg"
   xmlns:sodipodi="http://sodipodi.sourceforge.net/DTD/sodipodi-0.dtd"
   xmlns:inkscape="http://www.inkscape.org/namespaces/inkscape"
   width="81mm"
   height="91mm"
   viewBox="0 0 81 91"
   version="1.1"
   id="svg8"
   inkscape:version="0.92.4 (5da689c313, 2019-01-14)"
   sodipodi:docname="islemode.svg">
  <defs
     id="defs2" />
  <sodipodi:namedview
     id="base"
     pagecolor="#515151"
     bordercolor="#666666"
     borderopacity="1.0"
     inkscape:pageopacity="0"
     inkscape:pageshadow="2"
     inkscape:zoom="1.4"
     inkscape:cx="87.544262"
     inkscape:cy="179.44227"
     inkscape:document-units="mm"
     inkscape:current-layer="layer2"
     showgrid="false"
     inkscape:window-width="1920"
     inkscape:window-height="996"
     inkscape:window-x="-8"
     inkscape:window-y="-8"
     inkscape:window-maximized="1" />
  <metadata
     id="metadata5">
    <rdf:RDF>
      <cc:Work
         rdf:about="">
        <dc:format>image/svg+xml</dc:format>
        <dc:type
           rdf:resource="http://purl.org/dc/dcmitype/StillImage" />
        <dc:title></dc:title>
      </cc:Work>
    </rdf:RDF>
  </metadata>
  <g
     inkscape:groupmode="layer"
     id="layer2"
     inkscape:label="Layer 2"
     style="display:inline"
     transform="translate(0,-206)">
    <rect
       style="display:inline;fill:#ffffff;fill-opacity:0.9517544;stroke:none;stroke-width:0.31714949;stroke-linecap:round;stroke-linejoin:round;stroke-miterlimit:4;stroke-dasharray:none;stroke-opacity:1"
       id="rect6128-8-3-3-8"
       width="9.2604151"
       height="86.178566"
       x="69.169647"
       y="207.9866" />
    <path
       inkscape:connector-curvature="0"
       id="path827"
       style="font-style:normal;font-weight:normal;font-size:10.58333302px;line-height:1.25;font-family:sans-serif;letter-spacing:0px;word-spacing:0px;fill:#ffffff;fill-opacity:1;stroke:none;stroke-width:0.64277834"
       d="m 51.261697,220.34462 q 0,0.75995 -0.511144,1.34112 l -1.036107,1.11758 q -0.524963,0.56627 -1.257145,0.56627 -0.745997,0 -1.243326,-0.56627 l -4.06154,-4.36606 v 10.49049 q 0,0.77486 -0.524963,1.2517 -0.511145,0.49176 -1.243328,0.49176 h -1.768288 q -0.732181,0 -1.257143,-0.49176 -0.511145,-0.47684 -0.511145,-1.2517 v -10.49049 l -4.06154,4.36606 q -0.497332,0.56627 -1.243328,0.56627 -0.745998,0 -1.243328,-0.56627 l -1.036108,-1.11758 q -0.524961,-0.56624 -0.524961,-1.34112 0,-0.78976 0.524961,-1.35601 l 8.993408,-9.70074 q 0.483517,-0.55135 1.243328,-0.55135 0.745998,0 1.257143,0.55135 l 8.99341,9.70074 q 0.511144,0.58116 0.511144,1.35601 z" />
    <path
       inkscape:connector-curvature="0"
       id="path827-7"
       style="font-style:normal;font-weight:normal;font-size:10.58333302px;line-height:1.25;font-family:sans-serif;letter-spacing:0px;word-spacing:0px;display:inline;fill:#ffffff;fill-opacity:1;stroke:none;stroke-width:0.64277834"
       d="m 51.261697,250.58272 q 0,0.75995 -0.511144,1.34112 l -1.036107,1.11758 q -0.524963,0.56627 -1.257145,0.56627 -0.745997,0 -1.243326,-0.56627 l -4.06154,-4.36606 v 10.49049 q 0,0.77486 -0.524963,1.2517 -0.511145,0.49176 -1.243328,0.49176 h -1.768287 q -0.732181,0 -1.257143,-0.49176 -0.511145,-0.47684 -0.511145,-1.2517 v -10.49049 l -4.061541,4.36606 q -0.497332,0.56627 -1.243327,0.56627 -0.745999,0 -1.243329,-0.56627 l -1.036108,-1.11758 q -0.524961,-0.56624 -0.524961,-1.34112 0,-0.78976 0.524961,-1.35601 l 8.993408,-9.70074 q 0.483517,-0.55135 1.243328,-0.55135 0.745998,0 1.257143,0.55135 l 8.99341,9.70074 q 0.511144,0.58116 0.511144,1.35601 z" />
    <path
       inkscape:connector-curvature="0"
       id="path827-7-5"
       style="font-style:normal;font-weight:normal;font-size:10.58333302px;line-height:1.25;font-family:sans-serif;letter-spacing:0px;word-spacing:0px;display:inline;fill:#ffffff;fill-opacity:1;stroke:none;stroke-width:0.64277834"
       d="m 51.261697,279.87587 q 0,0.75995 -0.511144,1.34112 l -1.036107,1.11758 q -0.524963,0.56627 -1.257145,0.56627 -0.745997,0 -1.243326,-0.56627 l -4.06154,-4.36606 V 288.459 q 0,0.77486 -0.524963,1.2517 -0.511145,0.49176 -1.243328,0.49176 h -1.768287 q -0.732181,0 -1.257143,-0.49176 -0.511145,-0.47684 -0.511145,-1.2517 v -10.49049 l -4.061541,4.36606 q -0.497332,0.56627 -1.243327,0.56627 -0.745999,0 -1.243329,-0.56627 l -1.036108,-1.11758 q -0.524961,-0.56624 -0.524961,-1.34112 0,-0.78976 0.524961,-1.35601 l 8.993408,-9.70074 q 0.483517,-0.55135 1.243328,-0.55135 0.745998,0 1.257143,0.55135 l 8.99341,9.70074 q 0.511144,0.58116 0.511144,1.35601 z" />
    <rect
       style="display:inline;fill:#ffffff;fill-opacity:0.9517544;stroke:none;stroke-width:0.31714949;stroke-linecap:round;stroke-linejoin:round;stroke-miterlimit:4;stroke-dasharray:none;stroke-opacity:1"
       id="rect6128-8-3-3-8-1"
       width="9.260416"
       height="86.178566"
       x="3.2128019"
       y="207.98659" />
  </g>
</svg>
