<?xml version="1.0" encoding="UTF-8" standalone="no"?>
<!-- Created with Inkscape (http://www.inkscape.org/) -->

<svg
   xmlns:dc="http://purl.org/dc/elements/1.1/"
   xmlns:cc="http://creativecommons.org/ns#"
   xmlns:rdf="http://www.w3.org/1999/02/22-rdf-syntax-ns#"
   xmlns:svg="http://www.w3.org/2000/svg"
   xmlns="http://www.w3.org/2000/svg"
   xmlns:sodipodi="http://sodipodi.sourceforge.net/DTD/sodipodi-0.dtd"
   xmlns:inkscape="http://www.inkscape.org/namespaces/inkscape"
   width="15mm"
   height="15mm"
   viewBox="0 0 15 15"
   version="1.1"
   id="svg8"
   inkscape:version="0.92.4 (5da689c313, 2019-01-14)"
   sodipodi:docname="left_circle.svg">
  <defs
     id="defs2" />
  <sodipodi:namedview
     id="base"
     pagecolor="#444444"
     bordercolor="#666666"
     borderopacity="1.0"
     inkscape:pageopacity="0"
     inkscape:pageshadow="2"
     inkscape:zoom="5.6"
     inkscape:cx="36.300877"
     inkscape:cy="30.944909"
     inkscape:document-units="mm"
     inkscape:current-layer="layer1"
     showgrid="false"
     inkscape:window-width="1920"
     inkscape:window-height="996"
     inkscape:window-x="-8"
     inkscape:window-y="-8"
     inkscape:window-maximized="1" />
  <metadata
     id="metadata5">
    <rdf:RDF>
      <cc:Work
         rdf:about="">
        <dc:format>image/svg+xml</dc:format>
        <dc:type
           rdf:resource="http://purl.org/dc/dcmitype/StillImage" />
        <dc:title />
      </cc:Work>
    </rdf:RDF>
  </metadata>
  <g
     inkscape:label="Layer 1"
     inkscape:groupmode="layer"
     id="layer1"
     transform="translate(0,-282)">
    <path
       inkscape:connector-curvature="0"
       id="path829-2"
       style="font-style:normal;font-weight:normal;font-size:10.58333302px;line-height:1.25;font-family:sans-serif;letter-spacing:0px;word-spacing:0px;fill:#ffffff;fill-opacity:1;stroke:none;stroke-width:0.26871753"
       d="m 2.8934109,285.66109 v 2.68718 q 0,0.15596 0.1139654,0.26993 0.1139654,0.11396 0.2699166,0.11396 h 2.6871758 q 0.2519228,0 0.3538906,-0.23993 0.1019688,-0.23391 -0.083972,-0.41387 l -0.8277458,-0.82774 q 0.8877277,-0.82175 2.0933571,-0.82175 0.6238094,0 1.193634,0.24593 0.5638277,0.23993 0.977702,0.65377 0.4138724,0.41389 0.6597964,0.98371 0.239926,0.56382 0.239926,1.18763 0,0.6238 -0.239926,1.19363 -0.245924,0.56384 -0.6597964,0.97771 -0.4138743,0.41387 -0.977702,0.6598 -0.5698246,0.23992 -1.193634,0.23992 -0.7137804,0 -1.3495853,-0.31189 -0.6358047,-0.31192 -1.0736702,-0.88173 -0.041986,-0.0601 -0.1379575,-0.072 -0.083972,0 -0.1499539,0.0541 l -0.8217485,0.82771 q -0.05398,0.0481 -0.05398,0.12597 -0.00599,0.072 0.041986,0.13196 0.6537986,0.79175 1.5835131,1.22363 0.9297146,0.43786 1.9613989,0.43786 0.9357129,0 1.7874509,-0.36588 0.8517399,-0.36589 1.4695499,-0.9837 0.61781,-0.6178 0.983698,-1.46956 0.365889,-0.85172 0.365889,-1.78744 0,-0.93571 -0.365889,-1.78745 -0.365888,-0.85174 -0.983698,-1.46956 -0.61781,-0.61781 -1.4695499,-0.9837 -0.851738,-0.36586 -1.7874509,-0.36586 -0.8817303,0 -1.7034779,0.33587 -0.8277457,0.32991 -1.4695488,0.93573 L 3.547214,285.39125 q -0.1739471,-0.18593 -0.4198717,-0.084 -0.2339279,0.10197 -0.2339279,0.35388 z" />
  </g>
</svg>
