<?xml version="1.0" encoding="UTF-8" standalone="no"?>
<!-- Created with Inkscape (http://www.inkscape.org/) -->

<svg
   xmlns:dc="http://purl.org/dc/elements/1.1/"
   xmlns:cc="http://creativecommons.org/ns#"
   xmlns:rdf="http://www.w3.org/1999/02/22-rdf-syntax-ns#"
   xmlns:svg="http://www.w3.org/2000/svg"
   xmlns="http://www.w3.org/2000/svg"
   xmlns:sodipodi="http://sodipodi.sourceforge.net/DTD/sodipodi-0.dtd"
   xmlns:inkscape="http://www.inkscape.org/namespaces/inkscape"
   width="15mm"
   height="15mm"
   viewBox="0 0 15 15"
   version="1.1"
   id="svg8"
   inkscape:version="0.92.4 (5da689c313, 2019-01-14)"
   sodipodi:docname="left.svg">
  <defs
     id="defs2" />
  <sodipodi:namedview
     id="base"
     pagecolor="#444444"
     bordercolor="#666666"
     borderopacity="1.0"
     inkscape:pageopacity="0"
     inkscape:pageshadow="2"
     inkscape:zoom="5.6"
     inkscape:cx="67.03132"
     inkscape:cy="30.984302"
     inkscape:document-units="mm"
     inkscape:current-layer="layer1"
     showgrid="false"
     inkscape:window-width="1920"
     inkscape:window-height="996"
     inkscape:window-x="-8"
     inkscape:window-y="-8"
     inkscape:window-maximized="1" />
  <metadata
     id="metadata5">
    <rdf:RDF>
      <cc:Work
         rdf:about="">
        <dc:format>image/svg+xml</dc:format>
        <dc:type
           rdf:resource="http://purl.org/dc/dcmitype/StillImage" />
        <dc:title></dc:title>
      </cc:Work>
    </rdf:RDF>
  </metadata>
  <g
     inkscape:label="Layer 1"
     inkscape:groupmode="layer"
     id="layer1"
     transform="translate(0,-282)">
    <path
       inkscape:connector-curvature="0"
       id="path829-2"
       style="font-style:normal;font-weight:normal;font-size:10.58333302px;line-height:1.25;font-family:sans-serif;letter-spacing:0px;word-spacing:0px;fill:#ffffff;fill-opacity:1;stroke:none;stroke-width:0.35829002"
       d="m 1.3578824,284.38152 v 3.5829 q 0,0.20794 0.1519538,0.3599 0.1519538,0.15194 0.3598888,0.15194 h 3.5829011 q 0.3358971,0 0.4718541,-0.3199 0.1359584,-0.31189 -0.1119625,-0.55183 l -1.1036611,-1.10366 q 1.1836369,-1.09566 2.7911428,-1.09566 0.8317458,0 1.591512,0.3279 0.7517702,0.31991 1.3036026,0.87171 0.55183,0.55185 0.879729,1.31161 0.319901,0.75177 0.319901,1.58351 0,0.83174 -0.319901,1.59151 -0.327899,0.75178 -0.879729,1.30361 -0.5518324,0.55183 -1.3036026,0.87973 -0.7597662,0.3199 -1.591512,0.3199 -0.9517072,0 -1.799447,-0.41586 -0.8477397,-0.41589 -1.4315603,-1.17564 -0.055981,-0.0801 -0.1839434,-0.096 -0.1119623,0 -0.1999385,0.0721 l -1.0956647,1.10361 q -0.071974,0.0641 -0.071974,0.16796 -0.00799,0.096 0.055981,0.17595 0.8717315,1.05567 2.1113508,1.6315 1.2396194,0.58381 2.6151985,0.58381 1.2476172,0 2.3832678,-0.48784 1.1356534,-0.48785 1.9593994,-1.31161 0.823747,-0.82373 1.311598,-1.9594 0.487851,-1.13563 0.487851,-2.38326 0,-1.24762 -0.487851,-2.38327 -0.487851,-1.13565 -1.311598,-1.9594 -0.823746,-0.82374 -1.9593994,-1.3116 -1.1356506,-0.48783 -2.3832678,-0.48783 -1.1756404,0 -2.2713038,0.44785 -1.103661,0.43987 -1.9593984,1.24762 l -1.0396807,-1.0317 Q 1.9976894,283.77377 1.66979,283.9097 q -0.3119039,0.13596 -0.3119039,0.47186 z" />
  </g>
</svg>
