<?xml version="1.0" encoding="UTF-8" standalone="no"?>
<!-- Svg Vector Icons : http://www.onlinewebfonts.com/icon -->

<svg
   xmlns:dc="http://purl.org/dc/elements/1.1/"
   xmlns:cc="http://creativecommons.org/ns#"
   xmlns:rdf="http://www.w3.org/1999/02/22-rdf-syntax-ns#"
   xmlns:svg="http://www.w3.org/2000/svg"
   xmlns="http://www.w3.org/2000/svg"
   xmlns:sodipodi="http://sodipodi.sourceforge.net/DTD/sodipodi-0.dtd"
   xmlns:inkscape="http://www.inkscape.org/namespaces/inkscape"
   version="1.1"
   x="0px"
   y="0px"
   viewBox="0 0 1000 1000"
   enable-background="new 0 0 1000 1000"
   xml:space="preserve"
   id="svg12"
   sodipodi:docname="db8bfc853618264730ee32a291032859.svg"
   inkscape:version="0.92.4 (5da689c313, 2019-01-14)"><defs
   id="defs16" /><sodipodi:namedview
   pagecolor="#6b6b6b"
   bordercolor="#666666"
   borderopacity="1"
   objecttolerance="10"
   gridtolerance="10"
   guidetolerance="10"
   inkscape:pageopacity="0"
   inkscape:pageshadow="2"
   inkscape:window-width="1920"
   inkscape:window-height="996"
   id="namedview14"
   showgrid="false"
   inkscape:zoom="0.472"
   inkscape:cx="362.16277"
   inkscape:cy="529.33946"
   inkscape:window-x="-8"
   inkscape:window-y="-8"
   inkscape:window-maximized="1"
   inkscape:current-layer="svg12" />
<metadata
   id="metadata2"> Svg Vector Icons : http://www.onlinewebfonts.com/icon <rdf:RDF><cc:Work
     rdf:about=""><dc:format>image/svg+xml</dc:format><dc:type
       rdf:resource="http://purl.org/dc/dcmitype/StillImage" /><dc:title></dc:title></cc:Work></rdf:RDF></metadata>
<g
   id="g830"><path
     inkscape:connector-curvature="0"
     style="fill:#fcfcfc;fill-opacity:1;stroke-width:0.1"
     id="path4"
     d="m 480.1,11.99 c -28.18,9.39 -45.43,28.94 -50.8,56.93 -2.68,13.8 -2.68,333.16 0,347.15 11.89,62.11 92.59,79.55 127.48,27.6 13.03,-19.74 12.65,-11.69 12.08,-206.26 L 568.29,62.21 561.96,49.37 C 554.68,34.61 542.6,22.72 527.45,15.82 514.99,10.08 491.8,8.16 480.1,11.99 Z" /><path
     inkscape:connector-curvature="0"
     style="fill:#fcfcfc;fill-opacity:1;stroke-width:0.1"
     id="path6"
     d="m 690.39,156.34 c -25.69,6.9 -47.35,27.99 -55.21,54.06 -4.22,13.23 -3.64,34.89 0.96,48.88 5.56,16.68 15.53,28.56 36.8,44.86 59.81,45.24 99.3,108.3 114.25,181.72 4.79,23.96 4.79,82.81 0,106.96 -19.36,96.23 -84.73,177.5 -173.48,214.89 -37.95,15.91 -71.5,22.43 -115.02,22.43 -137.83,-0.19 -254.76,-95.85 -284.47,-232.71 -6.13,-28.37 -6.13,-87.41 0,-115.59 5.18,-24.15 15.53,-54.25 25.3,-73.61 18.79,-37.19 52.14,-76.87 87.41,-103.71 20.32,-15.53 29.71,-27.79 35.46,-45.62 22.24,-72.08 -58.27,-131.69 -121.15,-89.71 -18.02,12.08 -36.42,27.6 -58.08,48.88 -60.18,59.42 -101.2,131.87 -121.71,214.11 -28.94,116.36 -8.05,244.79 55.97,346.39 33.93,53.67 80.13,101.21 131.69,135.53 57.12,38.15 118.27,61.72 187.86,72.46 30.48,4.6 96.04,4.6 126.52,0 150.67,-23.2 275.65,-114.25 342.17,-249.39 22.04,-44.86 36.42,-93.16 43.32,-144.92 3.45,-26.84 3.07,-84.54 -0.96,-112.14 -11.12,-78.4 -39.87,-148.94 -86.64,-212.01 -26.46,-35.84 -87.8,-93.16 -113.87,-106.2 -16.87,-8.63 -38.34,-10.74 -57.12,-5.56 z" /></g>
</svg>