<?xml version="1.0" encoding="UTF-8" standalone="no"?>
<!--?xml version="1.0" encoding="utf-8"?-->

<!-- Generator: Adobe Illustrator 19.1.1, SVG Export Plug-In . SVG Version: 6.00 Build 0)  -->

<svg
   xmlns:dc="http://purl.org/dc/elements/1.1/"
   xmlns:cc="http://creativecommons.org/ns#"
   xmlns:rdf="http://www.w3.org/1999/02/22-rdf-syntax-ns#"
   xmlns:svg="http://www.w3.org/2000/svg"
   xmlns="http://www.w3.org/2000/svg"
   xmlns:sodipodi="http://sodipodi.sourceforge.net/DTD/sodipodi-0.dtd"
   xmlns:inkscape="http://www.inkscape.org/namespaces/inkscape"
   version="1.1"
   id="_x31_0"
   x="0px"
   y="0px"
   viewBox="0 0 512 389"
   style="opacity:1"
   xml:space="preserve"
   sodipodi:docname="record_off.svg"
   width="512"
   height="389"
   inkscape:version="0.92.4 (5da689c313, 2019-01-14)"><metadata
   id="metadata31"><rdf:RDF><cc:Work
       rdf:about=""><dc:format>image/svg+xml</dc:format><dc:type
         rdf:resource="http://purl.org/dc/dcmitype/StillImage" /><dc:title /></cc:Work></rdf:RDF></metadata><defs
   id="defs29" /><sodipodi:namedview
   pagecolor="#414141"
   bordercolor="#666666"
   borderopacity="1"
   objecttolerance="10"
   gridtolerance="10"
   guidetolerance="10"
   inkscape:pageopacity="0"
   inkscape:pageshadow="2"
   inkscape:window-width="1920"
   inkscape:window-height="996"
   id="namedview27"
   showgrid="false"
   inkscape:zoom="0.921875"
   inkscape:cx="216.7205"
   inkscape:cy="162.61135"
   inkscape:window-x="-8"
   inkscape:window-y="-8"
   inkscape:window-maximized="1"
   inkscape:current-layer="g24" />
<style
   type="text/css"
   id="style2">
	.st0{fill:#374149;}
</style>
<g
   id="g24"
   transform="translate(0,-123)">
	
	
	
	
	
	
	
	
	
	<g
   id="g848"
   transform="matrix(0,0.94503138,-0.94503138,0,496.83832,75.638016)"
   style="fill:#ffffff;fill-opacity:1"><path
     id="path4"
     d="m 448.211,369.351 h 0.156 v 0 h 0.16 V 39.926 C 448.527,17.918 430.625,0 408.618,0 h -160.602 -0.989 v 0 h -0.16 -76.492 -66.981 C 81.375,0 63.473,17.918 63.473,39.926 v 329.426 28.649 74.078 c 0,22.007 17.902,39.922 39.922,39.922 h 305.223 c 22.007,0 39.91,-17.914 39.91,-39.922 V 398 Z m -145.02,-0.894 -5.554,9.153 -5.278,8.66 -15.035,24.718 -7.839,12.73 h 0.098 l -0.098,0.165 h 67.308 l 15.29,33.922 6.058,13.594 c -143.93477,3.51428 -143.89336,4.09 -201.717,4.09 l -7.711,-0.09 c 3.676,-5.348 5.832,-11.82 5.832,-18.766 0,-15.414 -10.527,-28.398 -24.774,-32.145 -16.04035,-3.83976 -13.18067,2.50225 -13.189,-26.488 v -79.504 c 11.629,16.195 26.015,30.282 42.457,41.574 v 16.278 l -0.09,9.05 0.09,-0.058 v 0.195 l 19.883,-13.68 6.797,-4.672 4.488,-3.094 2.43,-1.574 c -0.031,-0.012 -0.058,-0.028 -0.086,-0.043 l 0.148,-0.106 c -12.102,-5.336 -23.394,-12.16 -33.66,-20.226 -14.402,-11.324 -26.793,-25.118 -36.512,-40.723 0,0 0,-0.011 -0.015,-0.011 V 301.39 C 107.516,277.316 98.84,248.945 98.84,218.535 c 0,-86.66 70.508,-157.168 157.168,-157.168 86.66,0 157.152,70.508 157.152,157.168 0,70.219 -46.289,129.836 -109.969,149.922 z"
     class="st0"
     inkscape:connector-curvature="0"
     style="fill:#ffffff;fill-opacity:1"
     sodipodi:nodetypes="ccccsscccccssccssssccccccccccccccsccccccccccccccccccsssc" /><path
     id="path8"
     d="m 256.008,289.91 c 39.359,0 71.375,-32.016 71.375,-71.375 0,-39.359 -32.016,-71.39 -71.375,-71.39 -39.359,0 -71.39,32.031 -71.39,71.39 0,39.359 32.031,71.375 71.39,71.375 z m 0,-116.738 c 25,0 45.348,20.347 45.348,45.363 0,25 -20.348,45.348 -45.348,45.348 -25.016,0 -45.363,-20.348 -45.363,-45.348 0,-25.016 20.347,-45.363 45.363,-45.363 z"
     class="st0"
     inkscape:connector-curvature="0"
     style="fill:#ffffff;fill-opacity:1" /><path
     id="path20"
     d="m 328.641,288.117 -117.676,80.989 -7.594,5.222 -7.301,5.031 -19.778,13.622 -8.57,5.816 0.066,0.039 -0.149,0.102 43.758,24.946 h 39.461 l 20.954,-34.462 4.726,-7.766 4.886,-8.023 50.266,-82.625 c 0.231,-0.375 0.91,-1.489 -0.363,-2.676 -1.257,-1.199 -2.338,-0.461 -2.686,-0.215 z"
     class="st0"
     inkscape:connector-curvature="0"
     style="fill:#ffffff;fill-opacity:1" /></g>
</g>
</svg>