<?xml version="1.0" encoding="UTF-8" standalone="no"?>
<!--?xml version="1.0" encoding="utf-8"?-->

<!-- Generator: Adobe Illustrator 19.1.1, SVG Export Plug-In . SVG Version: 6.00 Build 0)  -->

<svg
   xmlns:dc="http://purl.org/dc/elements/1.1/"
   xmlns:cc="http://creativecommons.org/ns#"
   xmlns:rdf="http://www.w3.org/1999/02/22-rdf-syntax-ns#"
   xmlns:svg="http://www.w3.org/2000/svg"
   xmlns="http://www.w3.org/2000/svg"
   xmlns:sodipodi="http://sodipodi.sourceforge.net/DTD/sodipodi-0.dtd"
   xmlns:inkscape="http://www.inkscape.org/namespaces/inkscape"
   version="1.1"
   id="_x31_0"
   x="0px"
   y="0px"
   viewBox="0 0 512 389"
   style="opacity:1"
   xml:space="preserve"
   sodipodi:docname="record_on.svg"
   width="512"
   height="389"
   inkscape:version="0.92.4 (5da689c313, 2019-01-14)"><metadata
   id="metadata31"><rdf:RDF><cc:Work
       rdf:about=""><dc:format>image/svg+xml</dc:format><dc:type
         rdf:resource="http://purl.org/dc/dcmitype/StillImage" /><dc:title /></cc:Work></rdf:RDF></metadata><defs
   id="defs29" /><sodipodi:namedview
   pagecolor="#414141"
   bordercolor="#666666"
   borderopacity="1"
   objecttolerance="10"
   gridtolerance="10"
   guidetolerance="10"
   inkscape:pageopacity="0"
   inkscape:pageshadow="2"
   inkscape:window-width="1920"
   inkscape:window-height="996"
   id="namedview27"
   showgrid="false"
   inkscape:zoom="0.92187499"
   inkscape:cx="361.88224"
   inkscape:cy="193.55687"
   inkscape:window-x="-8"
   inkscape:window-y="-8"
   inkscape:window-maximized="1"
   inkscape:current-layer="g24" />
<style
   type="text/css"
   id="style2">
	.st0{fill:#374149;}
</style>
<g
   id="g24"
   transform="translate(0,-123)">
	
	
	
	
	
	
	
	
	
	<g
   id="g906"
   transform="matrix(0.9295513,0,0,0.9295513,18.750032,21.77598)"><rect
     y="186.06276"
     x="448.17844"
     height="161.33635"
     width="62.895908"
     id="rect850-7"
     style="opacity:1;fill:#ff1414;fill-opacity:1;stroke:none;stroke-width:0.2609202;stroke-linecap:round;stroke-linejoin:round;stroke-miterlimit:4;stroke-dasharray:none;stroke-opacity:1" /><rect
     y="124.20338"
     x="34.711864"
     height="384.54239"
     width="442.57629"
     id="rect850"
     style="fill:#ff1414;fill-opacity:1;stroke:none;stroke-width:1.06855428;stroke-linecap:round;stroke-linejoin:round;stroke-miterlimit:4;stroke-dasharray:none;stroke-opacity:1" /><g
     style="fill:#fffaf8;fill-opacity:1"
     transform="rotate(90,225.62762,286.37338)"
     id="g848"><path
       style="fill:#fffaf8;fill-opacity:1"
       inkscape:connector-curvature="0"
       class="st0"
       d="m 422.558,369.351 h 25.653 0.156 v 0 h 0.16 V 39.926 C 448.527,17.918 430.625,0 408.618,0 h -160.602 -0.989 v 0 h -0.16 V 27.906 H 231.281 170.375 V 0 H 103.394 C 81.375,0 63.473,17.918 63.473,39.926 v 329.426 h 25.984 c 7.91,0 14.317,6.406 14.317,14.332 0,3.962 -1.606,7.532 -4.195,10.122 -2.586,2.59 -6.16,4.195 -10.122,4.195 H 63.473 v 74.078 c 0,22.007 17.902,39.922 39.922,39.922 h 305.223 c 22.007,0 39.91,-17.914 39.91,-39.922 V 398 h -25.969 c -7.91,0 -14.332,-6.406 -14.332,-14.317 0,-3.965 1.606,-7.55 4.196,-10.136 2.6,-2.59 6.175,-4.196 10.135,-4.196 z M 108.297,55.367 c 0,-7.172 5.828,-13 13,-13 7.188,0 13,5.828 13,13 0,7.187 -5.812,13 -13,13 -7.172,0 -13,-5.813 -13,-13 z m 269.406,0 c 0,-7.172 5.828,-13 13,-13 7.184,0 13,5.828 13,13 0,7.187 -5.816,13 -13,13 -7.172,0 -13,-5.813 -13,-13 z m -74.512,313.09 -5.554,9.153 -5.278,8.66 -15.035,24.718 -7.839,12.73 h 0.098 l -0.098,0.165 h 67.308 l 15.29,33.922 6.058,13.594 H 214.406 c -2.863,0 -5.652,-0.824 -8.039,-2.344 l -0.015,-0.015 -10.254,-8.04 -8.008,5.422 c 0,0 -0.015,0 -0.015,0.016 -0.39,0.203 -0.766,0.449 -1.141,0.695 l -8.562,5.782 c -2.473,1.679 -5.394,2.574 -8.402,2.574 h -13.546 l -7.711,-0.09 c 3.676,-5.348 5.832,-11.82 5.832,-18.766 0,-15.414 -10.527,-28.398 -24.774,-32.145 l 3.125,-14.258 -0.16,-0.114 L 116.582,398 v -79.504 c 11.629,16.195 26.015,30.282 42.457,41.574 v 16.278 l -0.09,9.05 0.09,-0.058 v 0.195 l 19.883,-13.68 6.797,-4.672 4.488,-3.094 2.43,-1.574 c -0.031,-0.012 -0.058,-0.028 -0.086,-0.043 l 0.148,-0.106 c -12.102,-5.336 -23.394,-12.16 -33.66,-20.226 -14.402,-11.324 -26.793,-25.118 -36.512,-40.723 0,0 0,-0.011 -0.015,-0.011 V 301.39 C 107.516,277.316 98.84,248.945 98.84,218.535 c 0,-86.66 70.508,-157.168 157.168,-157.168 86.66,0 157.152,70.508 157.152,157.168 0,70.219 -46.289,129.836 -109.969,149.922 z M 125.317,444.27 c 0.042,0.015 0.086,0.027 0.133,0.043 5.148,1.734 8.847,6.594 8.847,12.32 0,7.172 -5.812,13 -13,13 -0.461,0 -0.926,-0.027 -1.371,-0.07 -0.046,0 -0.09,-0.015 -0.133,-0.015 -6.461,-0.754 -11.496,-6.246 -11.496,-12.914 0,-7.187 5.828,-13 13,-13 1.402,-0.001 2.761,0.217 4.02,0.636 z m 252.386,12.363 c 0,-7.187 5.828,-13 13,-13 7.184,0 13,5.813 13,13 0,7.172 -5.816,13 -13,13 -7.172,0 -13,-5.828 -13,-13 z"
       id="path4" /><path
       style="fill:#fffaf8;fill-opacity:1"
       inkscape:connector-curvature="0"
       class="st0"
       d="m 256.008,227.672 c 5.047,0 9.137,-4.09 9.137,-9.137 0,-5.047 -4.09,-9.152 -9.137,-9.152 -5.062,0 -9.152,4.105 -9.152,9.152 0,5.047 4.09,9.137 9.152,9.137 z"
       id="path6" /><path
       style="fill:#fffaf8;fill-opacity:1"
       inkscape:connector-curvature="0"
       class="st0"
       d="m 256.008,289.91 c 39.359,0 71.375,-32.016 71.375,-71.375 0,-39.359 -32.016,-71.39 -71.375,-71.39 -39.359,0 -71.39,32.031 -71.39,71.39 0,39.359 32.031,71.375 71.39,71.375 z m 0,-116.738 c 25,0 45.348,20.347 45.348,45.363 0,25 -20.348,45.348 -45.348,45.348 -25.016,0 -45.363,-20.348 -45.363,-45.348 0,-25.016 20.347,-45.363 45.363,-45.363 z"
       id="path8" /><path
       style="fill:#fffaf8;fill-opacity:1"
       inkscape:connector-curvature="0"
       class="st0"
       d="m 228.723,235.785 c 3.351,-1.098 5.48,-4.206 5.48,-7.546 0,-0.824 -0.133,-1.649 -0.39,-2.473 -1.102,-3.355 -4.223,-5.496 -7.562,-5.496 -0.813,0 -1.649,0.129 -2.461,0.39 -4.176,1.375 -6.462,5.856 -5.09,10.035 0.551,1.68 1.594,3.051 2.922,3.992 1.343,0.954 2.949,1.489 4.629,1.489 0.823,0 1.647,-0.114 2.472,-0.391 z"
       id="path10" /><path
       style="fill:#fffaf8;fill-opacity:1"
       inkscape:connector-curvature="0"
       class="st0"
       d="m 237.586,201.211 c 1.633,0 3.266,-0.493 4.683,-1.531 2.125,-1.563 3.27,-3.977 3.27,-6.438 0,-1.618 -0.508,-3.25 -1.535,-4.668 -1.558,-2.125 -3.977,-3.254 -6.434,-3.254 -1.633,0 -3.27,0.493 -4.683,1.531 -3.543,2.59 -4.325,7.563 -1.734,11.106 1.558,2.129 3.976,3.254 6.433,3.254 z"
       id="path12" /><path
       style="fill:#fffaf8;fill-opacity:1"
       inkscape:connector-curvature="0"
       class="st0"
       d="m 256.122,241.859 c -0.012,0 -0.012,0 -0.028,0 h -0.086 c -2.199,0 -4.195,0.894 -5.625,2.328 -1.434,1.446 -2.328,3.426 -2.328,5.626 0,2.195 0.894,4.191 2.328,5.625 1.43,1.43 3.426,2.328 5.625,2.328 h 0.16 c 4.379,-0.015 7.922,-3.57 7.922,-7.953 0,-0.016 0,-0.016 0,-0.031 -0.028,-4.368 -3.586,-7.923 -7.968,-7.923 z"
       id="path14" /><path
       style="fill:#fffaf8;fill-opacity:1"
       inkscape:connector-curvature="0"
       class="st0"
       d="m 274.313,201.141 c 2.457,0 4.886,-1.145 6.449,-3.286 1.028,-1.402 1.504,-3.035 1.504,-4.652 0,-2.461 -1.129,-4.906 -3.281,-6.453 -1.418,-1.024 -3.051,-1.516 -4.672,-1.516 -2.457,0 -4.887,1.141 -6.434,3.282 -2.574,3.558 -1.778,8.531 1.777,11.105 1.402,1.028 3.039,1.52 4.657,1.52 z"
       id="path16" /><path
       style="fill:#fffaf8;fill-opacity:1"
       inkscape:connector-curvature="0"
       class="st0"
       d="m 278.219,225.664 c -1.348,4.18 0.953,8.66 5.133,10.008 0.808,0.258 1.633,0.39 2.441,0.39 1.68,0 3.297,-0.539 4.63,-1.508 1.343,-0.953 2.402,-2.328 2.934,-4.019 0.262,-0.809 0.39,-1.633 0.39,-2.426 0,-3.371 -2.153,-6.496 -5.523,-7.578 -0.809,-0.262 -1.634,-0.39 -2.43,-0.39 -3.368,0 -6.493,2.152 -7.575,5.523 z"
       id="path18" /><path
       style="fill:#fffaf8;fill-opacity:1"
       inkscape:connector-curvature="0"
       class="st0"
       d="m 328.641,288.117 -117.676,80.989 -7.594,5.222 -7.301,5.031 -19.778,13.622 -8.57,5.816 0.066,0.039 -0.149,0.102 43.758,24.946 h 39.461 l 20.954,-34.462 4.726,-7.766 4.886,-8.023 50.266,-82.625 c 0.231,-0.375 0.91,-1.489 -0.363,-2.676 -1.257,-1.199 -2.338,-0.461 -2.686,-0.215 z"
       id="path20" /><polygon
       style="fill:#fffaf8;fill-opacity:1"
       class="st0"
       points="239.637,456.633 249.558,456.633 263.266,456.633 295.512,456.633 295.512,446.946 273.633,446.946 255.442,446.946 246.129,446.946 236.821,446.946 230.774,446.946 230.774,448.867 230.774,456.633 "
       id="polygon22" /></g></g>
</g>
</svg>