<?xml version="1.0" encoding="UTF-8" standalone="no"?>
<!-- Created with Inkscape (http://www.inkscape.org/) -->

<svg
   xmlns:dc="http://purl.org/dc/elements/1.1/"
   xmlns:cc="http://creativecommons.org/ns#"
   xmlns:rdf="http://www.w3.org/1999/02/22-rdf-syntax-ns#"
   xmlns:svg="http://www.w3.org/2000/svg"
   xmlns="http://www.w3.org/2000/svg"
   xmlns:sodipodi="http://sodipodi.sourceforge.net/DTD/sodipodi-0.dtd"
   xmlns:inkscape="http://www.inkscape.org/namespaces/inkscape"
   width="15mm"
   height="15mm"
   viewBox="0 0 15 15"
   version="1.1"
   id="svg8"
   inkscape:version="0.92.4 (5da689c313, 2019-01-14)"
   sodipodi:docname="right.svg">
  <defs
     id="defs2" />
  <sodipodi:namedview
     id="base"
     pagecolor="#444444"
     bordercolor="#666666"
     borderopacity="1.0"
     inkscape:pageopacity="0"
     inkscape:pageshadow="2"
     inkscape:zoom="5.6"
     inkscape:cx="69.709891"
     inkscape:cy="46.07145"
     inkscape:document-units="mm"
     inkscape:current-layer="layer1"
     showgrid="false"
     inkscape:window-width="1920"
     inkscape:window-height="996"
     inkscape:window-x="-8"
     inkscape:window-y="-8"
     inkscape:window-maximized="1" />
  <metadata
     id="metadata5">
    <rdf:RDF>
      <cc:Work
         rdf:about="">
        <dc:format>image/svg+xml</dc:format>
        <dc:type
           rdf:resource="http://purl.org/dc/dcmitype/StillImage" />
        <dc:title />
      </cc:Work>
    </rdf:RDF>
  </metadata>
  <g
     inkscape:label="Layer 1"
     inkscape:groupmode="layer"
     id="layer1"
     transform="translate(0,-282)">
    <g
       aria-label="ï¤"
       transform="scale(0.95505364,1.0470616)"
       style="font-style:normal;font-variant:normal;font-weight:normal;font-stretch:normal;font-size:14.04749966px;line-height:1.25;font-family:FontAwesome;-inkscape-font-specification:FontAwesome;letter-spacing:0px;word-spacing:0px;fill:#ffffff;fill-opacity:1;stroke:none;stroke-width:0.35118747"
       id="text818">
      <path
         d="m 14.727771,274.37932 q 0.148941,0.14894 0.148941,0.35276 0,0.20381 -0.148941,0.35275 l -4.013572,4.01358 q -0.148941,0.14894 -0.352755,0.14894 -0.203814,0 -0.352755,-0.14894 -0.1489413,-0.14895 -0.1489413,-0.35276 v -2.00679 H 8.1038102 q -0.7682226,0 -1.3796651,0.047 -0.6036035,0.047 -1.207207,0.17246 -0.5957645,0.11758 -1.0425879,0.32924 -0.4389844,0.21165 -0.8230957,0.54873 -0.3841113,0.32923 -0.6271205,0.79174 -0.2430092,0.45466 -0.3841113,1.08178 -0.1332631,0.62712 -0.1332631,1.41886 0,0.43114 0.039195,0.9642 0,0.047 0.015678,0.18029 0.023517,0.14111 0.023517,0.21166 0,0.11758 -0.070551,0.19597 -0.062712,0.0784 -0.1802972,0.0784 -0.1254241,0 -0.2194921,-0.13326 -0.054873,-0.0706 -0.1019071,-0.17246 -0.047034,-0.10191 -0.1097461,-0.23517 -0.054873,-0.13326 -0.07839,-0.18814 -0.99555381,-2.23411 -0.99555381,-3.53539 0,-1.55996 0.41546731,-2.61039 1.2699191,-3.15912 6.8591307,-3.15912 h 1.7559375 v -2.00678 q 0,-0.20382 0.1489413,-0.35276 0.148941,-0.14894 0.352755,-0.14894 0.203814,0 0.352755,0.14894 z"
         style="fill:#ffffff;fill-opacity:1;stroke-width:0.35118747"
         id="path814" />
    </g>
  </g>
</svg>
