<?xml version="1.0" encoding="UTF-8" standalone="no"?>
<!-- Created with Inkscape (http://www.inkscape.org/) -->

<svg
   xmlns:dc="http://purl.org/dc/elements/1.1/"
   xmlns:cc="http://creativecommons.org/ns#"
   xmlns:rdf="http://www.w3.org/1999/02/22-rdf-syntax-ns#"
   xmlns:svg="http://www.w3.org/2000/svg"
   xmlns="http://www.w3.org/2000/svg"
   xmlns:sodipodi="http://sodipodi.sourceforge.net/DTD/sodipodi-0.dtd"
   xmlns:inkscape="http://www.inkscape.org/namespaces/inkscape"
   width="15mm"
   height="15mm"
   viewBox="0 0 15 15"
   version="1.1"
   id="svg8"
   inkscape:version="0.92.4 (5da689c313, 2019-01-14)"
   sodipodi:docname="right_circle.svg">
  <defs
     id="defs2" />
  <sodipodi:namedview
     id="base"
     pagecolor="#444444"
     bordercolor="#666666"
     borderopacity="1.0"
     inkscape:pageopacity="0"
     inkscape:pageshadow="2"
     inkscape:zoom="5.6"
     inkscape:cx="36.40632"
     inkscape:cy="30.984302"
     inkscape:document-units="mm"
     inkscape:current-layer="layer1"
     showgrid="false"
     inkscape:window-width="1920"
     inkscape:window-height="996"
     inkscape:window-x="-8"
     inkscape:window-y="-8"
     inkscape:window-maximized="1" />
  <metadata
     id="metadata5">
    <rdf:RDF>
      <cc:Work
         rdf:about="">
        <dc:format>image/svg+xml</dc:format>
        <dc:type
           rdf:resource="http://purl.org/dc/dcmitype/StillImage" />
        <dc:title />
      </cc:Work>
    </rdf:RDF>
  </metadata>
  <g
     inkscape:label="Layer 1"
     inkscape:groupmode="layer"
     id="layer1"
     transform="translate(0,-282)">
    <path
       inkscape:connector-curvature="0"
       id="path829-2"
       style="font-style:normal;font-weight:normal;font-size:10.58333302px;line-height:1.25;font-family:sans-serif;letter-spacing:0px;word-spacing:0px;fill:#ffffff;fill-opacity:1;stroke:none;stroke-width:0.26871753"
       d="m 12.10659,285.66109 v 2.68718 q 0,0.15596 -0.113965,0.26993 -0.113966,0.11396 -0.269917,0.11396 H 9.0355328 q -0.2519229,0 -0.3538906,-0.23993 -0.1019688,-0.23391 0.083972,-0.41387 l 0.827746,-0.82774 q -0.8877278,-0.82175 -2.0933573,-0.82175 -0.6238093,0 -1.193634,0.24593 -0.5638276,0.23993 -0.9777019,0.65377 -0.4138725,0.41389 -0.6597968,0.98371 -0.2399256,0.56382 -0.2399256,1.18763 0,0.6238 0.2399256,1.19363 0.2459244,0.56384 0.6597968,0.97771 0.4138743,0.41387 0.9777019,0.6598 0.5698247,0.23992 1.193634,0.23992 0.7137804,0 1.3495853,-0.31189 0.635805,-0.31192 1.07367,-0.88173 0.041985,-0.0601 0.1379578,-0.072 0.08397,0 0.149953,0.0541 l 0.821749,0.82771 q 0.05398,0.0481 0.05398,0.12597 0.006,0.072 -0.04199,0.13196 -0.653799,0.79175 -1.5835123,1.22363 -0.9297145,0.43786 -1.9613988,0.43786 -0.9357129,0 -1.7874509,-0.36588 Q 4.860806,293.37481 4.2429965,292.757 3.6251862,292.1392 3.259298,291.28744 2.8934097,290.43572 2.8934097,289.5 q 0,-0.93571 0.3658883,-1.78745 0.3658882,-0.85174 0.9836985,-1.46956 0.6178095,-0.61781 1.4695495,-0.9837 0.851738,-0.36586 1.7874509,-0.36586 0.8817303,0 1.7034778,0.33587 0.8277453,0.32991 1.4695483,0.93573 l 0.77976,-0.77378 q 0.173948,-0.18593 0.419872,-0.084 0.233928,0.10197 0.233928,0.35388 z" />
  </g>
</svg>
