<?xml version="1.0" encoding="UTF-8" standalone="no"?>
<!-- Created with Inkscape (http://www.inkscape.org/) -->

<svg
   xmlns:dc="http://purl.org/dc/elements/1.1/"
   xmlns:cc="http://creativecommons.org/ns#"
   xmlns:rdf="http://www.w3.org/1999/02/22-rdf-syntax-ns#"
   xmlns:svg="http://www.w3.org/2000/svg"
   xmlns="http://www.w3.org/2000/svg"
   xmlns:sodipodi="http://sodipodi.sourceforge.net/DTD/sodipodi-0.dtd"
   xmlns:inkscape="http://www.inkscape.org/namespaces/inkscape"
   width="15mm"
   height="15mm"
   viewBox="0 0 15 15"
   version="1.1"
   id="svg8"
   inkscape:version="0.92.4 (5da689c313, 2019-01-14)"
   sodipodi:docname="right.svg">
  <defs
     id="defs2" />
  <sodipodi:namedview
     id="base"
     pagecolor="#444444"
     bordercolor="#666666"
     borderopacity="1.0"
     inkscape:pageopacity="0"
     inkscape:pageshadow="2"
     inkscape:zoom="5.6"
     inkscape:cx="67.03132"
     inkscape:cy="30.984302"
     inkscape:document-units="mm"
     inkscape:current-layer="layer1"
     showgrid="false"
     inkscape:window-width="1920"
     inkscape:window-height="996"
     inkscape:window-x="-8"
     inkscape:window-y="-8"
     inkscape:window-maximized="1" />
  <metadata
     id="metadata5">
    <rdf:RDF>
      <cc:Work
         rdf:about="">
        <dc:format>image/svg+xml</dc:format>
        <dc:type
           rdf:resource="http://purl.org/dc/dcmitype/StillImage" />
        <dc:title></dc:title>
      </cc:Work>
    </rdf:RDF>
  </metadata>
  <g
     inkscape:label="Layer 1"
     inkscape:groupmode="layer"
     id="layer1"
     transform="translate(0,-282)">
    <path
       inkscape:connector-curvature="0"
       id="path829-2"
       style="font-style:normal;font-weight:normal;font-size:10.58333302px;line-height:1.25;font-family:sans-serif;letter-spacing:0px;word-spacing:0px;fill:#ffffff;fill-opacity:1;stroke:none;stroke-width:0.35829002"
       d="m 13.642118,284.38152 v 3.5829 q 0,0.20794 -0.151954,0.3599 -0.151954,0.15194 -0.359889,0.15194 H 9.5473743 q -0.3358971,0 -0.4718541,-0.3199 -0.1359584,-0.31189 0.1119625,-0.55183 l 1.1036613,-1.10366 q -1.1836371,-1.09566 -2.791143,-1.09566 -0.8317458,0 -1.591512,0.3279 -0.7517702,0.31991 -1.3036026,0.87171 -0.55183,0.55185 -0.879729,1.31161 -0.319901,0.75177 -0.319901,1.58351 0,0.83174 0.319901,1.59151 0.327899,0.75178 0.879729,1.30361 0.5518324,0.55183 1.3036026,0.87973 0.7597662,0.3199 1.591512,0.3199 0.9517072,0 1.799447,-0.41586 0.84774,-0.41589 1.43156,-1.17564 0.05598,-0.0801 0.183944,-0.096 0.111962,0 0.199938,0.0721 l 1.095665,1.10361 q 0.07197,0.0641 0.07197,0.16796 0.008,0.096 -0.05598,0.17595 -0.871732,1.05567 -2.111351,1.6315 -1.2396193,0.58381 -2.6151984,0.58381 -1.2476172,0 -2.3832678,-0.48784 -1.1356534,-0.48785 -1.9593994,-1.31161 -0.823747,-0.82373 -1.311598,-1.9594 -0.487851,-1.13563 -0.487851,-2.38326 0,-1.24762 0.487851,-2.38327 0.487851,-1.13565 1.311598,-1.9594 0.823746,-0.82374 1.9593994,-1.3116 1.1356506,-0.48783 2.3832678,-0.48783 1.1756404,0 2.2713038,0.44785 1.1036606,0.43987 1.9593986,1.24762 l 1.03968,-1.0317 q 0.23193,-0.24791 0.559829,-0.11198 0.311904,0.13596 0.311904,0.47186 z" />
  </g>
</svg>
