<?xml version="1.0" encoding="UTF-8" standalone="no"?>
<!-- drawn by Useddenim -->
<svg xmlns="http://www.w3.org/2000/svg" width="1000" height="1000">
<title>STOP</title>
<path d="M 293,0 707,0 1000,293 1000,707 707,1000 293,1000 0,707 0,293 z" stroke="none" fill="darkred" />
<path d="M 83.33,583.33 A 66.66 66.66 0,0,0 216.66,583.33 V 566.66 A 66.66 66.66 0,0,0 150,500 A 66.66 66.66 0,0,1 83.33,433.33 A 66.66 66.66 0,0,1 216.66,433.33
         M 275,366.66 H 475 M 375,366.66 V 675 
         M 533.33,433.33 A 66.66 66.66 0,0,1 666.66,433.33 V 583.33 A 66.66 66.66 0,0,1 533.33,583.33 Z
         M 766.66,675 V 366.66 H 833.33 A 66.66 66.66 0,0,1 900,433.33 A 66.66 66.66 0,0,1 833.33,500 H 766.66" 
      stroke="white" stroke-width="50" fill="none" />
</svg>