<?xml version="1.0" encoding="UTF-8" standalone="no"?>
<svg
   xmlns:dc="http://purl.org/dc/elements/1.1/"
   xmlns:cc="http://creativecommons.org/ns#"
   xmlns:rdf="http://www.w3.org/1999/02/22-rdf-syntax-ns#"
   xmlns:svg="http://www.w3.org/2000/svg"
   xmlns="http://www.w3.org/2000/svg"
   xmlns:sodipodi="http://sodipodi.sourceforge.net/DTD/sodipodi-0.dtd"
   xmlns:inkscape="http://www.inkscape.org/namespaces/inkscape"
   height="9"
   version="1.1"
   viewBox="0 0 17 9"
   width="17"
   id="svg9"
   sodipodi:docname="unknown.svg"
   inkscape:version="0.92.4 (5da689c313, 2019-01-14)">
  <metadata
     id="metadata13">
    <rdf:RDF>
      <cc:Work
         rdf:about="">
        <dc:format>image/svg+xml</dc:format>
        <dc:type
           rdf:resource="http://purl.org/dc/dcmitype/StillImage" />
        <dc:title />
      </cc:Work>
    </rdf:RDF>
  </metadata>
  <sodipodi:namedview
     pagecolor="#4c4c4c"
     bordercolor="#666666"
     borderopacity="1"
     objecttolerance="10"
     gridtolerance="10"
     guidetolerance="10"
     inkscape:pageopacity="0"
     inkscape:pageshadow="2"
     inkscape:window-width="1920"
     inkscape:window-height="996"
     id="namedview11"
     showgrid="false"
     inkscape:zoom="5.2149125"
     inkscape:cx="11.758382"
     inkscape:cy="-1.9711127"
     inkscape:window-x="-8"
     inkscape:window-y="-8"
     inkscape:window-maximized="1"
     inkscape:current-layer="text814" />
  <defs
     id="defs4" />
  <path
     style="fill:#fdfdfd;fill-opacity:1;fill-rule:evenodd;stroke:none;stroke-width:1;stroke-opacity:1"
     d="m 1.5,1.5 v 6 h 13 v -6 z m 0.007,-1 H 14.49204 C 15.05108,0.5 15.5,0.946386 15.5,1.49703 V 2.5 h 1 v 4 h -1 V 7.50297 C 15.5,8.046964 15.04893,8.5 14.49252,8.5 H 1.50748 C 0.94892,8.5 0.5,8.053614 0.5,7.50297 V 1.49703 C 0.5,0.953036 0.95107,0.5 1.50748,0.5 Z"
     id="Rectangle 147"
     inkscape:connector-curvature="0"
     sodipodi:nodetypes="ccccccssccccssssscc" />
  <g
     aria-label="?"
     style="font-style:normal;font-variant:normal;font-weight:normal;font-stretch:normal;font-size:6.10027122px;line-height:1.25;font-family:'Arial Black';-inkscape-font-specification:'Arial Black, ';letter-spacing:0px;word-spacing:0px;fill:#ffffff;fill-opacity:1;stroke:none;stroke-width:0.15250678"
     id="text814">
    <path
       d="M 8.3649254,5.3504039 H 7.2330391 V 5.2372153 q 0,-0.2889289 0.06553,-0.4676478 Q 7.3640996,4.58787 7.4921815,4.4389376 7.623242,4.2900052 8.0759965,3.9146955 8.317267,3.7181048 8.317267,3.5542791 q 0,-0.1638256 -0.098295,-0.2531851 -0.095317,-0.092338 -0.2919075,-0.092338 -0.211484,0 -0.3514804,0.1399965 Q 7.4385658,3.4887489 7.3998434,3.8372507 L 6.244128,3.6942756 Q 6.3037009,3.0568449 6.7058184,2.6696206 7.1109146,2.2794178 7.944936,2.2794178 q 0.6493453,0 1.0484841,0.2710569 0.542114,0.3663737 0.542114,0.9769966 0,0.2531851 -0.1399965,0.4884983 Q 9.2555412,4.2512828 8.8236372,4.5908486 8.5227937,4.8291405 8.4423702,4.9750942 8.3649254,5.1180694 8.3649254,5.3504039 Z M 7.1943167,5.6512474 H 8.4066265 V 6.720582 H 7.1943167 Z"
       style="stroke-width:0.15250678"
       id="path816" />
  </g>
</svg>
